<svg width="27" height="33" viewBox="0 0 27 33" fill="none" xmlns="http://www.w3.org/2000/svg">
<path d="M22.6672 17.7369C22.631 13.7074 25.9666 11.747 26.1191 11.6557C24.23 8.90145 21.302 8.52513 20.2731 8.49512C17.8139 8.23633 15.4284 9.96666 14.1757 9.96666C12.8979 9.96666 10.9688 8.52013 8.88968 8.56264C6.21417 8.6039 3.7113 10.1529 2.33843 12.5584C-0.494507 17.4631 1.61829 24.6707 4.33266 28.6352C5.69032 30.5781 7.27697 32.7448 9.35352 32.6685C11.3852 32.586 12.1441 31.3745 14.5958 31.3745C17.0249 31.3745 17.7376 32.6685 19.8554 32.6197C22.0359 32.586 23.4086 30.6694 24.719 28.7102C26.288 26.4861 26.918 24.2931 26.9431 24.1806C26.893 24.1631 22.7097 22.5653 22.6672 17.7369ZM18.6664 5.88713C19.759 4.52062 20.5068 2.66151 20.2993 0.774902C18.7176 0.844916 16.7398 1.86886 15.6008 3.20537C14.5931 4.38309 13.6929 6.31346 13.9254 8.12881C15.7021 8.26133 17.5262 7.23238 18.6664 5.88713Z" fill="white"/>
</svg>
